Coordinates
version=1
nRows=60
nColumns=12
inDegrees=yes

Units are S.I. units (second, meters, Newtons, ...)
Angles are in degrees

endheader
time	SC_y	SC_z	SC_x	AC_y	AC_z	AC_x	GH_y	GH_z	GH_yy	EL_x	PS_y
       0.0              -48.55         0.6356           24.1          47.26          3.018         0.6062         -95.89          79.94          126.3          92.86          23.77
   0.03958              -48.55         0.6377          24.11          47.26          3.019         0.6064         -95.88          79.93          126.3          92.85          23.78
   0.07916              -48.54         0.6399          24.11          47.26           3.02         0.6066         -95.87          79.93          126.2          92.85           23.8
    0.1187              -48.54         0.6422          24.12          47.26          3.021         0.6068         -95.86          79.92          126.2          92.84          23.81
    0.1583              -48.54         0.6448          24.13          47.27          3.022          0.607         -95.85          79.91          126.1          92.84          23.83
    0.1979              -48.54         0.6474          24.14          47.27          3.023         0.6072         -95.84           79.9          126.1          92.83          23.85
    0.2375              -48.54         0.6503          24.15          47.27          3.024         0.6074         -95.83          79.89          126.0          92.82          23.87
     0.277              -48.54         0.6533          24.16          47.27          3.025         0.6077         -95.82          79.87          126.0          92.82          23.89
    0.3166              -48.53         0.6566          24.18          47.27          3.026          0.608         -95.81          79.86          125.9          92.81          23.91
    0.3562              -48.53         0.6601          24.19          47.27          3.028         0.6082         -95.79          79.85          125.9           92.8          23.93
    0.3958              -48.53         0.6639           24.2          47.27          3.029         0.6086         -95.78          79.83          125.8          92.79          23.96
    0.4354              -48.53          0.668          24.22          47.28          3.031         0.6089         -95.76          79.82          125.7          92.78          23.98
    0.4749              -48.52         0.6723          24.24          47.28          3.032         0.6092         -95.74           79.8          125.6          92.77          24.01
    0.5145              -48.52         0.6771          24.25          47.28          3.034         0.6096         -95.72          79.78          125.5          92.76          24.04
    0.5541              -48.52         0.6822          24.27          47.28          3.036           0.61          -95.7          79.76          125.5          92.75          24.08
    0.5937              -48.51         0.6877          24.29          47.29          3.038         0.6105         -95.68          79.74          125.3          92.73          24.11
    0.6332              -48.51         0.6938          24.32          47.29           3.04          0.611         -95.66          79.72          125.2          92.72          24.15
    0.6728              -48.51         0.7003          24.34          47.29          3.043         0.6115         -95.63          79.69          125.1           92.7          24.19
    0.7124               -48.5         0.7075          24.37          47.29          3.045         0.6121          -95.6          79.66          125.0          92.68          24.24
     0.752               -48.5         0.7153           24.4           47.3          3.048         0.6128         -95.57          79.63          124.8          92.67          24.29
    0.7916              -48.49          0.724          24.43           47.3          3.052         0.6135         -95.54           79.6          124.7          92.64          24.35
    0.8311              -48.49         0.7334          24.47          47.31          3.055         0.6142          -95.5          79.56          124.5          92.62          24.41
    0.8707              -48.48         0.7439          24.51          47.31          3.059         0.6151         -95.45          79.52          124.3           92.6          24.48
    0.9103              -48.47         0.7555          24.55          47.32          3.064          0.616         -95.41          79.48          124.1          92.57          24.56
    0.9499              -48.46         0.7684           24.6          47.32          3.068         0.6171         -95.36          79.43          123.9          92.54          24.64
    0.9894              -48.45         0.7829          24.65          47.33          3.074         0.6183          -95.3          79.37          123.6           92.5          24.74
     1.029              -48.44          0.799          24.71          47.34           3.08         0.6196         -95.23          79.31          123.3          92.46          24.84
     1.069              -48.43         0.8171          24.78          47.35          3.087         0.6211         -95.16          79.24          123.0          92.42          24.96
     1.108              -48.42         0.8376          24.86          47.36          3.094         0.6227         -95.08          79.16          122.6          92.37           25.1
     1.148               -48.4         0.8609          24.95          47.37          3.103         0.6247         -94.98          79.07          122.2          92.31          25.25
     1.187              -48.39         0.8875          25.05          47.38          3.113         0.6268         -94.88          78.96          121.7          92.25          25.42
     1.227              -48.37          0.918          25.16          47.39          3.125         0.6293         -94.75          78.84          121.1          92.17          25.62
     1.266              -48.35         0.9532           25.3          47.41          3.138         0.6322         -94.61          78.71          120.5          92.09          25.86
     1.306              -48.32         0.9941          25.45          47.43          3.153         0.6355         -94.45          78.55          119.7          91.99          26.13
     1.346              -48.29          1.042          25.63          47.45          3.171         0.6395         -94.26          78.36          118.9          91.87          26.44
     1.385              -48.25          1.098          25.85          47.48          3.193         0.6441         -94.03          78.14          117.8          91.73          26.81
     1.425              -48.21          1.166           26.1          47.51          3.218         0.6495         -93.76          77.88          116.6          91.57          27.25
     1.464              -48.16          1.246           26.4          47.55          3.248         0.6561         -93.43          77.57          115.1          91.37          27.78
     1.504               -48.1          1.343          26.77          47.59          3.285         0.6641         -93.04          77.19          113.4          91.14          28.42
     1.544              -48.02          1.462          27.22          47.65          3.329         0.6738         -92.57          76.73          111.2          90.85           29.2
     1.583              -47.93          1.609          27.77          47.71          3.385         0.6858         -91.98          76.16          108.5          90.49          30.16
     1.623              -47.82          1.792          28.47           47.8          3.453         0.7007         -91.24          75.45          105.1          90.04          31.36
     1.662              -47.67          2.022          29.34          47.91           3.54         0.7195         -90.31          74.55          100.9          89.48          32.88
     1.702              -47.48          2.315          30.44          48.04           3.65         0.7435         -89.13          73.41          95.57          88.77           34.8
     1.741              -47.25           2.69          31.86          48.22          3.791         0.7741         -87.63          71.96          88.72          87.86          37.26
     1.781              -46.94          3.171          33.68          48.44          3.972         0.8134         -85.69          70.09          79.91          86.69          40.42
     1.821              -46.55          3.785           36.0          48.73          4.204         0.8636         -83.22           67.7          68.67          85.19          44.46
      1.86              -46.07          4.558          38.92          49.09          4.494         0.9267         -80.11          64.69          54.53          83.31          49.53
       1.9              -45.47          5.499          42.47          49.53          4.849          1.004         -76.32          61.03           37.3          81.02          55.72
     1.939              -44.78           6.59           46.6          50.04          5.259          1.093         -71.93          56.79          17.33          78.36          62.89
     1.979              -44.03          7.772          51.06          50.59          5.704          1.189         -67.18          52.19         -4.293          75.48          70.65
     2.018              -43.28          8.954          55.53          51.14          6.148          1.286         -62.42           47.6         -25.92           72.6          78.41
     2.058              -42.59          10.04          59.65          51.65          6.559          1.375         -58.03          43.35         -45.89          69.94          85.58
     2.098               -42.0          10.99          63.21          52.09          6.913          1.452         -54.24          39.69         -63.12          67.65          91.77
     2.137              -41.51          11.76          66.13          52.45          7.204          1.515         -51.13          36.69         -77.26          65.77          96.84
     2.177              -41.12          12.37          68.45          52.73          7.435          1.565         -48.66           34.3          -88.5          64.27          100.9
     2.216              -40.82          12.85          70.27          52.96          7.616          1.605         -46.73          32.43          -97.3           63.1          104.0
     2.256              -40.58          13.23          71.68          53.13          7.757          1.635         -45.22          30.97         -104.2          62.19          106.5
     2.296              -40.39          13.52          72.79          53.27          7.868          1.659         -44.04          29.83         -109.5          61.48          108.4
     2.335              -40.25          13.75          73.66          53.37          7.954          1.678         -43.11          28.94         -113.7          60.92          109.9
